<mxfile host="app.diagrams.net" modified="2023-11-09T21:15:38.240Z" agent="Mozilla/5.0 (Windows NT 10.0; Win64; x64) AppleWebKit/537.36 (KHTML, like Gecko) Chrome/116.0.0.0 Safari/537.36 OPR/102.0.0.0" etag="NvBf1-7VvupjmOJ3SZ3q" version="22.1.0" type="device">
  <diagram name="Página-1" id="4GcUxK1dPRSd9ja28RKR">
    <mxGraphModel dx="2220" dy="1935" grid="1" gridSize="10" guides="1" tooltips="1" connect="1" arrows="1" fold="1" page="1" pageScale="1" pageWidth="827" pageHeight="1169" math="0" shadow="0">
      <root>
        <mxCell id="0" />
        <mxCell id="1" parent="0" />
        <mxCell id="M27mCfy6WkDgeA-iICXA-1" value="&lt;p style=&quot;margin:0px;margin-top:4px;text-align:center;&quot;&gt;&lt;b&gt;factura&lt;/b&gt;&lt;/p&gt;&lt;hr size=&quot;1&quot;&gt;&lt;p style=&quot;margin:0px;margin-left:4px;&quot;&gt;- fecha: Date&lt;br&gt;- numeroFactura: Long&lt;br&gt;- productosVendidos: List&amp;lt;Producto&amp;gt;&lt;br&gt;- cantidadProductos: List&amp;lt;Long&amp;gt;&lt;br&gt;- preciosUnitarios: List&amp;lt;Double&amp;gt;&lt;br&gt;- precioTotal: List&amp;lt;Double&amp;gt;&lt;br&gt;&lt;/p&gt;&lt;hr size=&quot;1&quot;&gt;&lt;p style=&quot;margin:0px;margin-left:4px;&quot;&gt;+ get() set()&lt;/p&gt;" style="verticalAlign=top;align=left;overflow=fill;fontSize=12;fontFamily=Helvetica;html=1;whiteSpace=wrap;" parent="1" vertex="1">
          <mxGeometry x="-105" y="550" width="210" height="170" as="geometry" />
        </mxCell>
        <mxCell id="M27mCfy6WkDgeA-iICXA-2" value="&lt;p style=&quot;margin:0px;margin-top:4px;text-align:center;&quot;&gt;&lt;b&gt;producto&lt;/b&gt;&lt;/p&gt;&lt;hr size=&quot;1&quot;&gt;&lt;p style=&quot;margin:0px;margin-left:4px;&quot;&gt;+ nombre: String&lt;br&gt;    + cantidadEnStock: Long&lt;br&gt;    + precioDeCompra: Double&lt;br&gt;    + precioDeVenta: Double&lt;br&gt;&lt;/p&gt;&lt;hr size=&quot;1&quot;&gt;&lt;p style=&quot;margin:0px;margin-left:4px;&quot;&gt;+ get() set()&lt;br&gt;&lt;/p&gt;" style="verticalAlign=top;align=left;overflow=fill;fontSize=12;fontFamily=Helvetica;html=1;whiteSpace=wrap;" parent="1" vertex="1">
          <mxGeometry x="180" y="350" width="160" height="130" as="geometry" />
        </mxCell>
        <mxCell id="M27mCfy6WkDgeA-iICXA-3" value="&lt;p style=&quot;margin:0px;margin-top:4px;text-align:center;&quot;&gt;&lt;b&gt;venta&lt;/b&gt;&lt;/p&gt;&lt;hr size=&quot;1&quot;&gt;&lt;p style=&quot;margin:0px;margin-left:4px;&quot;&gt;&lt;/p&gt;&amp;nbsp;+ fecha: Date&lt;br&gt;&amp;nbsp;+ númeroFactura: Long&lt;br&gt;&amp;nbsp;+ nombreProducto: String&lt;br&gt;&amp;nbsp;+ cantidadVendida: Long&lt;br&gt;&amp;nbsp;+ precioUnitario: Double&lt;hr size=&quot;1&quot;&gt;&lt;p style=&quot;margin:0px;margin-left:4px;&quot;&gt;+ get() set()&lt;br&gt;&lt;/p&gt;" style="verticalAlign=top;align=left;overflow=fill;fontSize=12;fontFamily=Helvetica;html=1;whiteSpace=wrap;" parent="1" vertex="1">
          <mxGeometry x="-90" y="350" width="180" height="140" as="geometry" />
        </mxCell>
        <mxCell id="M27mCfy6WkDgeA-iICXA-4" value="&lt;p style=&quot;margin:0px;margin-top:4px;text-align:center;&quot;&gt;&lt;b&gt;proveedor&lt;/b&gt;&lt;/p&gt;&lt;hr size=&quot;1&quot;&gt;&lt;p style=&quot;margin:0px;margin-left:4px;&quot;&gt;&lt;span style=&quot;background-color: initial;&quot;&gt;+ nombre: String&lt;br&gt;    + dirección: String&lt;br&gt;    + númeroTeléfono: String&lt;br&gt;    + correoElectrónico: String&lt;br&gt;    + productosQueVende: List&amp;lt;Producto&amp;gt;&lt;br&gt;    + preciosDeCompra: List&amp;lt;Double&amp;gt;&lt;br&gt;    + condicionesDePago: List&amp;lt;String&amp;gt;&lt;/span&gt;&lt;/p&gt;&lt;hr size=&quot;1&quot;&gt;&lt;p style=&quot;margin:0px;margin-left:4px;&quot;&gt;+ get() set()&lt;br&gt;&lt;/p&gt;" style="verticalAlign=top;align=left;overflow=fill;fontSize=12;fontFamily=Helvetica;html=1;whiteSpace=wrap;" parent="1" vertex="1">
          <mxGeometry x="160" y="90" width="200" height="190" as="geometry" />
        </mxCell>
        <mxCell id="M27mCfy6WkDgeA-iICXA-5" value="&lt;p style=&quot;margin:0px;margin-top:4px;text-align:center;&quot;&gt;&lt;b&gt;categoria_producto&lt;/b&gt;&lt;/p&gt;&lt;hr size=&quot;1&quot;&gt;&lt;p style=&quot;margin:0px;margin-left:4px;&quot;&gt;&lt;span style=&quot;background-color: initial;&quot;&gt;+ nombre: String&lt;br&gt;    + descripción: String&lt;/span&gt;&lt;/p&gt;&lt;hr size=&quot;1&quot;&gt;&lt;p style=&quot;margin:0px;margin-left:4px;&quot;&gt;+ get() set()&lt;br&gt;&lt;/p&gt;" style="verticalAlign=top;align=left;overflow=fill;fontSize=12;fontFamily=Helvetica;html=1;whiteSpace=wrap;" parent="1" vertex="1">
          <mxGeometry x="180" y="535" width="160" height="100" as="geometry" />
        </mxCell>
        <mxCell id="M27mCfy6WkDgeA-iICXA-6" value="&lt;p style=&quot;margin:0px;margin-top:4px;text-align:center;&quot;&gt;&lt;b&gt;promocion&lt;/b&gt;&lt;/p&gt;&lt;hr size=&quot;1&quot;&gt;&lt;p style=&quot;margin:0px;margin-left:4px;&quot;&gt;&lt;span style=&quot;background-color: initial;&quot;&gt;+ nombre: String&lt;/span&gt;&lt;br&gt;&lt;/p&gt;&lt;p style=&quot;margin:0px;margin-left:4px;&quot;&gt;    + descripción: String&lt;br&gt;    + fechaInicio: Date&lt;br&gt;    + fechaFin: Date&lt;br&gt;    + descuento: Double&lt;br&gt;    + cupón: String&lt;br&gt;&lt;/p&gt;&lt;hr size=&quot;1&quot;&gt;&lt;p style=&quot;margin:0px;margin-left:4px;&quot;&gt;+ get() set()&lt;br&gt;&lt;/p&gt;" style="verticalAlign=top;align=left;overflow=fill;fontSize=12;fontFamily=Helvetica;html=1;whiteSpace=wrap;" parent="1" vertex="1">
          <mxGeometry x="420" y="390" width="160" height="160" as="geometry" />
        </mxCell>
        <mxCell id="M27mCfy6WkDgeA-iICXA-11" value="&lt;p style=&quot;margin:0px;margin-top:4px;text-align:center;&quot;&gt;&lt;b&gt;Cliente&lt;/b&gt;&lt;/p&gt;&lt;hr size=&quot;1&quot;&gt;&lt;p style=&quot;margin:0px;margin-left:4px;&quot;&gt;- persona: Persona&lt;/p&gt;&lt;hr size=&quot;1&quot;&gt;&lt;p style=&quot;margin:0px;margin-left:4px;&quot;&gt;+ get() set()&lt;br&gt;&lt;/p&gt;" style="verticalAlign=top;align=left;overflow=fill;fontSize=12;fontFamily=Helvetica;html=1;whiteSpace=wrap;" parent="1" vertex="1">
          <mxGeometry x="-580" y="535" width="160" height="90" as="geometry" />
        </mxCell>
        <mxCell id="M27mCfy6WkDgeA-iICXA-14" value="" style="endArrow=diamondThin;endFill=1;endSize=24;html=1;rounded=0;entryX=0.5;entryY=0;entryDx=0;entryDy=0;exitX=0.5;exitY=1;exitDx=0;exitDy=0;" parent="1" source="M27mCfy6WkDgeA-iICXA-4" target="M27mCfy6WkDgeA-iICXA-2" edge="1">
          <mxGeometry width="160" relative="1" as="geometry">
            <mxPoint x="269" y="580" as="sourcePoint" />
            <mxPoint x="430" y="550" as="targetPoint" />
          </mxGeometry>
        </mxCell>
        <mxCell id="M27mCfy6WkDgeA-iICXA-16" value="" style="endArrow=block;startArrow=block;endFill=1;startFill=1;html=1;rounded=0;entryX=-0.029;entryY=0.252;entryDx=0;entryDy=0;entryPerimeter=0;strokeWidth=2;" parent="1" target="M27mCfy6WkDgeA-iICXA-6" edge="1">
          <mxGeometry width="160" relative="1" as="geometry">
            <mxPoint x="340" y="430" as="sourcePoint" />
            <mxPoint x="480" y="440" as="targetPoint" />
          </mxGeometry>
        </mxCell>
        <mxCell id="zpc9F8b33lmd0Hfrzcb6-1" value="&lt;p style=&quot;margin:0px;margin-top:4px;text-align:center;&quot;&gt;&lt;b&gt;Auditoria&lt;/b&gt;&lt;/p&gt;&lt;p style=&quot;margin:0px;margin-top:4px;text-align:center;&quot;&gt;&lt;b&gt;&amp;lt;&amp;lt;Abstract&amp;gt;&amp;gt;&lt;/b&gt;&lt;/p&gt;&lt;hr size=&quot;1&quot;&gt;&lt;p style=&quot;margin:0px;margin-left:4px;&quot;&gt;&lt;/p&gt;&amp;nbsp;- createdAt: LocalDataTime&lt;br&gt;&amp;nbsp;- updateAt: LocalDataTime&lt;br&gt;&amp;nbsp;- deletedAt: LocalDataTime&lt;br&gt;&amp;nbsp;- state: Boolean&lt;br&gt;&amp;nbsp;- createdUser: Long&lt;br&gt;&amp;nbsp;- updatedUser: Long&lt;br&gt;&amp;nbsp;- deletedUser: Long&lt;hr size=&quot;1&quot;&gt;&lt;p style=&quot;margin:0px;margin-left:4px;&quot;&gt;+ get() set()&lt;br&gt;&lt;/p&gt;" style="verticalAlign=top;align=left;overflow=fill;fontSize=12;fontFamily=Helvetica;html=1;whiteSpace=wrap;" parent="1" vertex="1">
          <mxGeometry x="-220" y="90" width="280" height="190" as="geometry" />
        </mxCell>
        <mxCell id="zpc9F8b33lmd0Hfrzcb6-2" value="&lt;p style=&quot;margin:0px;margin-top:4px;text-align:center;&quot;&gt;&lt;b&gt;&amp;lt;&amp;lt;Interface&amp;gt;&amp;gt;&lt;/b&gt;&lt;/p&gt;&lt;p style=&quot;margin:0px;margin-top:4px;text-align:center;&quot;&gt;&lt;b&gt;Accion&lt;/b&gt;&lt;/p&gt;&lt;hr size=&quot;1&quot;&gt;&lt;p style=&quot;margin:0px;margin-left:4px;&quot;&gt;&lt;br&gt;&lt;/p&gt;&lt;hr size=&quot;1&quot;&gt;&lt;p style=&quot;margin:0px;margin-left:4px;&quot;&gt;+ Crear: Entity&amp;nbsp;&lt;/p&gt;&lt;p style=&quot;margin:0px;margin-left:4px;&quot;&gt;+ Modificar: void&amp;nbsp;&lt;/p&gt;&lt;p style=&quot;margin:0px;margin-left:4px;&quot;&gt;+ Eliminar: void&amp;nbsp;&lt;/p&gt;&lt;p style=&quot;margin:0px;margin-left:4px;&quot;&gt;+ Consultar: Entity&lt;br&gt;&lt;/p&gt;" style="verticalAlign=top;align=left;overflow=fill;fontSize=12;fontFamily=Helvetica;html=1;whiteSpace=wrap;" parent="1" vertex="1">
          <mxGeometry x="-160" y="-110" width="160" height="140" as="geometry" />
        </mxCell>
        <mxCell id="zpc9F8b33lmd0Hfrzcb6-3" value="&lt;p style=&quot;margin:0px;margin-top:4px;text-align:center;&quot;&gt;&lt;b&gt;Empleado&lt;/b&gt;&lt;/p&gt;&lt;hr size=&quot;1&quot;&gt;&lt;p style=&quot;margin:0px;margin-left:4px;&quot;&gt;- fechaIngreso: LocalDateTime&lt;br style=&quot;border-color: var(--border-color);&quot;&gt;- salario: BigDecimal&lt;br style=&quot;border-color: var(--border-color);&quot;&gt;- persona: Persona&lt;br&gt;&lt;/p&gt;&lt;hr size=&quot;1&quot;&gt;&lt;p style=&quot;margin:0px;margin-left:4px;&quot;&gt;+ get() set()&lt;br&gt;&lt;/p&gt;" style="verticalAlign=top;align=left;overflow=fill;fontSize=12;fontFamily=Helvetica;html=1;whiteSpace=wrap;" parent="1" vertex="1">
          <mxGeometry x="-340" y="350" width="180" height="110" as="geometry" />
        </mxCell>
        <mxCell id="zpc9F8b33lmd0Hfrzcb6-4" value="&lt;p style=&quot;margin:0px;margin-top:4px;text-align:center;&quot;&gt;&lt;b&gt;Persona&lt;/b&gt;&lt;/p&gt;&lt;hr size=&quot;1&quot;&gt;&lt;p style=&quot;margin:0px;margin-left:4px;&quot;&gt;+ nombre: String&lt;br&gt;+ apellido: String&lt;br style=&quot;border-color: var(--border-color);&quot;&gt;+ edad: Byte&lt;br&gt;&lt;/p&gt;&lt;hr size=&quot;1&quot;&gt;&lt;p style=&quot;margin:0px;margin-left:4px;&quot;&gt;+ get() set()&lt;br&gt;&lt;/p&gt;" style="verticalAlign=top;align=left;overflow=fill;fontSize=12;fontFamily=Helvetica;html=1;whiteSpace=wrap;" parent="1" vertex="1">
          <mxGeometry x="-580" y="350" width="160" height="110" as="geometry" />
        </mxCell>
        <mxCell id="zpc9F8b33lmd0Hfrzcb6-5" value="" style="endArrow=diamondThin;endFill=0;endSize=24;html=1;rounded=0;exitX=0.5;exitY=1;exitDx=0;exitDy=0;entryX=0.5;entryY=0;entryDx=0;entryDy=0;" parent="1" source="zpc9F8b33lmd0Hfrzcb6-4" target="M27mCfy6WkDgeA-iICXA-11" edge="1">
          <mxGeometry width="160" relative="1" as="geometry">
            <mxPoint x="-130" y="430" as="sourcePoint" />
            <mxPoint x="30" y="430" as="targetPoint" />
          </mxGeometry>
        </mxCell>
        <mxCell id="zpc9F8b33lmd0Hfrzcb6-6" value="" style="endArrow=diamondThin;endFill=1;endSize=24;html=1;rounded=0;entryX=0;entryY=0.5;entryDx=0;entryDy=0;exitX=1;exitY=0.5;exitDx=0;exitDy=0;" parent="1" source="zpc9F8b33lmd0Hfrzcb6-4" target="zpc9F8b33lmd0Hfrzcb6-3" edge="1">
          <mxGeometry width="160" relative="1" as="geometry">
            <mxPoint x="-390.41999999999996" y="415" as="sourcePoint" />
            <mxPoint x="-390.41999999999996" y="360" as="targetPoint" />
          </mxGeometry>
        </mxCell>
        <mxCell id="zpc9F8b33lmd0Hfrzcb6-7" value="" style="endArrow=diamondThin;endFill=1;endSize=24;html=1;rounded=0;entryX=0.011;entryY=0.348;entryDx=0;entryDy=0;exitX=1.006;exitY=0.45;exitDx=0;exitDy=0;entryPerimeter=0;exitPerimeter=0;" parent="1" source="zpc9F8b33lmd0Hfrzcb6-3" target="M27mCfy6WkDgeA-iICXA-3" edge="1">
          <mxGeometry width="160" relative="1" as="geometry">
            <mxPoint x="-180" y="490" as="sourcePoint" />
            <mxPoint x="-100" y="490" as="targetPoint" />
          </mxGeometry>
        </mxCell>
        <mxCell id="zpc9F8b33lmd0Hfrzcb6-8" value="" style="endArrow=diamondThin;endFill=1;endSize=24;html=1;rounded=0;entryX=-0.003;entryY=0.394;entryDx=0;entryDy=0;exitX=1.011;exitY=0.365;exitDx=0;exitDy=0;exitPerimeter=0;entryPerimeter=0;" parent="1" source="M27mCfy6WkDgeA-iICXA-3" target="M27mCfy6WkDgeA-iICXA-2" edge="1">
          <mxGeometry width="160" relative="1" as="geometry">
            <mxPoint x="90" y="404.58" as="sourcePoint" />
            <mxPoint x="170" y="404.58" as="targetPoint" />
          </mxGeometry>
        </mxCell>
        <mxCell id="zpc9F8b33lmd0Hfrzcb6-9" value="Extends" style="endArrow=block;endSize=16;endFill=0;html=1;rounded=0;entryX=0.007;entryY=0.63;entryDx=0;entryDy=0;exitX=0.5;exitY=0;exitDx=0;exitDy=0;entryPerimeter=0;" parent="1" source="zpc9F8b33lmd0Hfrzcb6-4" target="zpc9F8b33lmd0Hfrzcb6-1" edge="1">
          <mxGeometry width="160" relative="1" as="geometry">
            <mxPoint x="-140" y="340" as="sourcePoint" />
            <mxPoint x="20" y="340" as="targetPoint" />
          </mxGeometry>
        </mxCell>
        <mxCell id="zpc9F8b33lmd0Hfrzcb6-10" value="Extends" style="endArrow=block;endSize=16;endFill=0;html=1;rounded=0;exitX=0.5;exitY=0;exitDx=0;exitDy=0;entryX=0;entryY=1;entryDx=0;entryDy=0;" parent="1" source="zpc9F8b33lmd0Hfrzcb6-3" target="zpc9F8b33lmd0Hfrzcb6-1" edge="1">
          <mxGeometry width="160" relative="1" as="geometry">
            <mxPoint x="-490" y="360" as="sourcePoint" />
            <mxPoint x="-240" y="300" as="targetPoint" />
          </mxGeometry>
        </mxCell>
        <mxCell id="zpc9F8b33lmd0Hfrzcb6-12" value="Extends" style="endArrow=block;endSize=16;endFill=0;html=1;rounded=0;exitX=0.5;exitY=0;exitDx=0;exitDy=0;entryX=0.5;entryY=1;entryDx=0;entryDy=0;" parent="1" source="M27mCfy6WkDgeA-iICXA-3" target="zpc9F8b33lmd0Hfrzcb6-1" edge="1">
          <mxGeometry width="160" relative="1" as="geometry">
            <mxPoint x="-240" y="360" as="sourcePoint" />
            <mxPoint x="-210" y="290" as="targetPoint" />
          </mxGeometry>
        </mxCell>
        <mxCell id="zpc9F8b33lmd0Hfrzcb6-13" value="Extends" style="endArrow=block;endSize=16;endFill=0;html=1;rounded=0;exitX=0;exitY=0;exitDx=0;exitDy=0;entryX=1;entryY=1;entryDx=0;entryDy=0;" parent="1" source="M27mCfy6WkDgeA-iICXA-2" target="zpc9F8b33lmd0Hfrzcb6-1" edge="1">
          <mxGeometry width="160" relative="1" as="geometry">
            <mxPoint x="-230" y="370" as="sourcePoint" />
            <mxPoint x="-200" y="300" as="targetPoint" />
          </mxGeometry>
        </mxCell>
        <mxCell id="zpc9F8b33lmd0Hfrzcb6-14" value="Extends" style="endArrow=block;endSize=16;endFill=0;html=1;rounded=0;exitX=0;exitY=0.5;exitDx=0;exitDy=0;entryX=1;entryY=0.5;entryDx=0;entryDy=0;" parent="1" source="M27mCfy6WkDgeA-iICXA-4" target="zpc9F8b33lmd0Hfrzcb6-1" edge="1">
          <mxGeometry width="160" relative="1" as="geometry">
            <mxPoint x="-220" y="380" as="sourcePoint" />
            <mxPoint x="-190" y="310" as="targetPoint" />
          </mxGeometry>
        </mxCell>
        <mxCell id="zpc9F8b33lmd0Hfrzcb6-15" value="" style="endArrow=block;dashed=1;endFill=0;endSize=12;html=1;rounded=0;entryX=0.5;entryY=1;entryDx=0;entryDy=0;exitX=0.5;exitY=0;exitDx=0;exitDy=0;" parent="1" source="zpc9F8b33lmd0Hfrzcb6-1" target="zpc9F8b33lmd0Hfrzcb6-2" edge="1">
          <mxGeometry width="160" relative="1" as="geometry">
            <mxPoint x="-100" y="190" as="sourcePoint" />
            <mxPoint x="60" y="190" as="targetPoint" />
          </mxGeometry>
        </mxCell>
        <mxCell id="zpc9F8b33lmd0Hfrzcb6-16" value="" style="endArrow=diamondThin;endFill=0;endSize=24;html=1;rounded=0;exitX=0.5;exitY=0;exitDx=0;exitDy=0;entryX=0.5;entryY=1;entryDx=0;entryDy=0;" parent="1" source="M27mCfy6WkDgeA-iICXA-5" target="M27mCfy6WkDgeA-iICXA-2" edge="1">
          <mxGeometry width="160" relative="1" as="geometry">
            <mxPoint x="-490" y="470" as="sourcePoint" />
            <mxPoint x="-490" y="545" as="targetPoint" />
          </mxGeometry>
        </mxCell>
        <mxCell id="zpc9F8b33lmd0Hfrzcb6-17" value="" style="endArrow=diamondThin;endFill=1;endSize=24;html=1;rounded=0;entryX=0.5;entryY=1;entryDx=0;entryDy=0;exitX=0.5;exitY=0;exitDx=0;exitDy=0;" parent="1" source="M27mCfy6WkDgeA-iICXA-1" target="M27mCfy6WkDgeA-iICXA-3" edge="1">
          <mxGeometry width="160" relative="1" as="geometry">
            <mxPoint x="270" y="290" as="sourcePoint" />
            <mxPoint x="270" y="360" as="targetPoint" />
          </mxGeometry>
        </mxCell>
      </root>
    </mxGraphModel>
  </diagram>
</mxfile>
